<svg xmlns="http://www.w3.org/2000/svg" xmlns:xlink="http://www.w3.org/1999/xlink" width="500" zoomAndPan="magnify" viewBox="0 0 375 374.999991" height="500" preserveAspectRatio="xMidYMid meet" version="1.0"><defs><clipPath id="81ab13118f"><path d="M 78.6875 107.941406 L 296.3125 107.941406 L 296.3125 325.5625 L 78.6875 325.5625 Z M 78.6875 107.941406 " clip-rule="nonzero"/></clipPath><clipPath id="f073c3fe3b"><path d="M 187.5 107.941406 C 127.40625 107.941406 78.6875 156.65625 78.6875 216.753906 C 78.6875 276.847656 127.40625 325.5625 187.5 325.5625 C 247.59375 325.5625 296.3125 276.847656 296.3125 216.753906 C 296.3125 156.65625 247.59375 107.941406 187.5 107.941406 Z M 187.5 107.941406 " clip-rule="nonzero"/></clipPath><clipPath id="6f4070433d"><path d="M 99.023438 127.894531 L 266.273438 127.894531 L 266.273438 276.394531 L 99.023438 276.394531 Z M 99.023438 127.894531 " clip-rule="nonzero"/></clipPath></defs><g clip-path="url(#81ab13118f)"><g clip-path="url(#f073c3fe3b)"><path fill="#ffffff" d="M 78.6875 107.941406 L 296.3125 107.941406 L 296.3125 325.5625 L 78.6875 325.5625 Z M 78.6875 107.941406 " fill-opacity="1" fill-rule="nonzero"/></g></g><g clip-path="url(#6f4070433d)"><path fill="#000000" d="M 136.359375 256.925781 L 129.746094 270.113281 C 127.828125 273.949219 123.898438 276.367188 119.605469 276.367188 L 107.34375 276.367188 L 117.089844 256.925781 L 99.027344 256.925781 C 99.027344 252.363281 100.84375 247.992188 104.078125 244.765625 C 107.308594 241.542969 111.691406 239.730469 116.261719 239.730469 L 125.707031 239.730469 L 179.480469 132.4375 C 180.871094 129.667969 183.707031 127.917969 186.8125 127.917969 C 189.914062 127.917969 192.753906 129.667969 194.140625 132.4375 L 222.625 189.265625 L 232.367188 189.265625 C 251.097656 189.265625 266.277344 204.414062 266.277344 223.09375 C 266.277344 241.777344 251.097656 256.925781 232.367188 256.925781 L 176.601562 256.925781 C 172.296875 256.925781 168.363281 259.351562 166.4375 263.191406 C 165.324219 265.410156 164.078125 267.902344 162.964844 270.113281 C 161.046875 273.949219 157.121094 276.367188 152.824219 276.367188 L 140.5625 276.367188 L 150.308594 256.925781 Z M 255.105469 254.078125 L 266.277344 276.367188 L 254.019531 276.367188 C 249.722656 276.367188 245.796875 273.949219 243.875 270.113281 L 238.960938 260.304688 C 244.949219 259.648438 250.472656 257.433594 255.105469 254.078125 Z M 228.648438 239.730469 L 178.195312 239.730469 C 178.195312 239.730469 187.9375 220.292969 192.527344 211.132812 C 193.964844 208.269531 196.898438 206.460938 200.105469 206.460938 L 206.597656 206.460938 L 197.980469 189.265625 L 196.78125 189.265625 C 189.082031 189.265625 182.042969 193.605469 178.597656 200.476562 C 171.148438 215.34375 158.925781 239.730469 158.925781 239.730469 L 144.976562 239.730469 L 183.6875 162.492188 C 184.28125 161.308594 185.488281 160.566406 186.8125 160.566406 C 188.132812 160.566406 189.34375 161.308594 189.933594 162.492188 Z M 231.242188 206.460938 L 232.367188 206.460938 C 241.578125 206.460938 249.042969 213.910156 249.042969 223.09375 C 249.042969 227.238281 247.527344 231.027344 245.011719 233.941406 Z M 231.242188 206.460938 " fill-opacity="1" fill-rule="evenodd"/></g></svg>